<?xml version="1.0" standalone="no"?>
<!DOCTYPE svg PUBLIC "-//W3C//DTD SVG 20010904//EN"
 "http://www.w3.org/TR/2001/REC-SVG-20010904/DTD/svg10.dtd">
<svg version="1.0" xmlns="http://www.w3.org/2000/svg"
 width="2048.000000pt" height="2048.000000pt" viewBox="0 0 2048.000000 2048.000000"
 preserveAspectRatio="xMidYMid meet">
<metadata>
Created by potrace 1.14, written by Peter Selinger 2001-2017
</metadata>
<g transform="translate(0.000000,2048.000000) scale(0.100000,-0.100000)"
fill="#000000" stroke="none">
<path d="M4960 16588 c0 -759 3 -958 13 -959 6 0 99 -1 205 0 105 0 192 -2
192 -4 0 -4 -22 -33 -45 -59 -6 -6 -57 -67 -115 -136 -57 -69 -107 -127 -110
-130 -3 -3 -50 -59 -105 -125 -55 -66 -102 -122 -105 -125 -5 -5 -161 -189
-199 -235 -9 -11 -79 -94 -156 -185 -77 -91 -148 -174 -157 -185 -23 -28 -311
-370 -358 -425 -21 -25 -68 -81 -105 -125 -37 -44 -87 -102 -110 -130 -61 -70
-492 -582 -540 -640 -22 -27 -45 -53 -50 -59 -6 -6 -33 -38 -60 -71 -28 -33
-52 -62 -55 -65 -3 -3 -27 -32 -54 -65 -27 -33 -54 -64 -60 -70 -6 -5 -29 -32
-51 -60 -21 -27 -42 -52 -45 -55 -3 -3 -41 -48 -85 -100 -44 -52 -90 -106
-102 -120 -11 -14 -76 -90 -143 -170 -67 -80 -142 -167 -165 -195 -24 -27
-109 -129 -189 -225 -81 -96 -157 -186 -169 -200 -13 -14 -45 -52 -72 -85 -28
-33 -52 -62 -55 -65 -23 -22 -203 -245 -227 -280 -45 -67 -109 -203 -119 -254
-2 -10 -8 -33 -13 -50 -17 -53 -28 -164 -25 -255 5 -166 23 -228 169 -576 7
-16 22 -50 33 -75 10 -25 72 -171 137 -325 64 -154 125 -298 135 -320 29 -63
100 -233 100 -239 0 -3 11 -29 24 -58 14 -29 37 -82 51 -118 15 -36 33 -78 41
-95 7 -16 57 -133 109 -260 53 -126 103 -243 110 -260 12 -27 164 -388 287
-680 27 -66 67 -160 88 -210 35 -82 168 -395 366 -865 40 -96 134 -318 208
-493 73 -174 131 -319 127 -320 -3 -2 -185 -2 -403 -2 l-398 2 0 -959 0 -958
2480 0 2480 0 0 958 0 958 -1031 0 c-1021 -1 -1032 -1 -1045 19 -7 11 -22 45
-34 75 -12 30 -28 69 -35 85 -8 17 -64 149 -125 295 -62 146 -118 279 -125
295 -7 17 -104 246 -215 510 -111 264 -208 494 -215 510 -8 17 -28 64 -45 105
-17 41 -35 84 -40 95 -5 11 -77 182 -160 380 -83 198 -157 374 -165 390 -7 17
-43 102 -80 190 -36 88 -72 174 -80 190 -7 17 -104 246 -215 510 -111 264
-210 498 -220 520 -9 22 -33 78 -53 125 -118 281 -179 427 -186 445 -6 16 8
38 73 115 44 52 83 97 86 100 5 5 87 101 127 150 26 31 257 306 287 340 11 14
44 52 71 85 28 33 52 62 55 65 3 3 39 46 79 95 41 50 80 95 86 100 5 6 52 61
103 122 51 62 106 127 122 145 24 28 164 194 314 372 23 27 46 54 51 60 13 15
106 126 125 150 8 10 20 24 27 30 6 7 35 42 64 77 29 35 58 69 64 75 5 6 26
30 45 54 19 24 40 48 45 54 6 6 44 52 86 101 42 50 167 198 279 330 111 132
220 260 240 285 21 25 52 61 68 80 16 19 121 143 232 275 111 132 212 251 224
265 11 14 70 82 129 153 59 70 155 184 214 255 59 70 117 138 129 152 23 27
191 226 253 300 21 25 103 122 182 215 79 94 162 193 184 219 22 27 45 54 50
60 6 6 49 56 95 111 46 55 88 103 94 107 5 3 1139 5 2520 5 l2511 -2 136 -340
c75 -187 142 -353 149 -370 6 -16 15 -39 20 -50 32 -76 421 -1053 425 -1065 3
-14 23 -62 50 -125 7 -16 133 -331 280 -700 147 -368 273 -683 280 -700 91
-208 1175 -2949 1169 -2954 -5 -4 -81 -70 -169 -147 -88 -76 -180 -158 -205
-180 -25 -23 -61 -55 -80 -70 -19 -16 -42 -36 -50 -44 -9 -8 -45 -40 -81 -71
-132 -115 -425 -372 -459 -403 -19 -18 -91 -81 -160 -141 -69 -60 -127 -111
-130 -114 -3 -3 -39 -35 -80 -71 -115 -100 -131 -114 -190 -166 -82 -72 -182
-160 -206 -181 -43 -37 -160 -139 -214 -188 -31 -27 -85 -75 -120 -106 -36
-31 -166 -145 -290 -254 -124 -109 -245 -216 -270 -237 -25 -22 -72 -64 -105
-93 -33 -29 -103 -90 -155 -136 -52 -46 -101 -89 -108 -96 -21 -20 -27 -17
-79 44 -26 32 -52 63 -58 69 -5 6 -35 42 -65 79 -30 37 -65 79 -78 94 -12 14
-102 121 -200 237 l-177 212 -50 -41 c-27 -23 -52 -44 -55 -47 -3 -3 -113 -95
-245 -205 -132 -110 -249 -208 -260 -218 -11 -10 -37 -33 -59 -50 -43 -36
-118 -98 -156 -131 -60 -51 -326 -274 -366 -306 -175 -141 -272 -227 -269
-237 3 -9 375 -457 687 -828 162 -193 261 -311 293 -350 55 -67 99 -119 105
-125 3 -3 62 -72 130 -155 69 -82 129 -155 135 -161 5 -6 26 -30 45 -54 19
-24 40 -48 45 -54 6 -6 34 -40 63 -76 30 -36 71 -85 92 -110 40 -46 63 -74 90
-107 88 -106 225 -270 234 -278 6 -5 27 -30 46 -55 19 -25 39 -50 45 -56 5 -6
29 -33 51 -60 48 -56 410 -489 435 -519 10 -11 68 -81 131 -156 62 -74 131
-157 153 -184 22 -26 45 -53 50 -59 6 -6 89 -104 184 -219 95 -114 176 -209
180 -212 5 -2 17 4 27 13 10 10 129 110 264 222 135 112 247 207 250 210 3 3
86 72 185 155 99 82 239 199 311 260 72 60 153 128 179 150 27 22 95 79 152
127 l103 87 -47 58 c-26 32 -61 74 -77 93 -17 20 -51 60 -76 90 -50 60 -152
181 -209 250 -21 25 -172 205 -336 400 -317 379 -360 431 -415 495 -19 22 -51
61 -72 85 -20 25 -53 65 -73 90 l-37 44 24 19 c21 17 97 84 166 147 15 14 56
50 92 80 35 30 68 60 74 65 6 6 47 42 91 80 44 38 96 83 115 101 19 17 62 55
95 84 33 29 74 64 90 79 17 14 64 56 105 91 41 36 79 70 85 76 5 6 59 53 119
105 60 52 124 108 141 124 17 17 54 48 81 70 27 22 56 47 64 56 8 9 47 42 85
75 39 32 72 62 75 65 3 3 48 43 100 89 52 46 124 108 159 139 35 31 69 61 75
66 6 6 139 123 296 260 157 137 287 252 290 255 9 9 93 83 159 140 36 30 69
60 75 65 6 6 45 39 86 75 41 36 79 70 85 76 5 5 64 57 130 115 66 57 125 109
131 114 14 12 140 124 168 148 12 10 32 28 46 40 14 12 59 51 100 87 41 36 77
68 80 71 3 3 43 39 90 80 151 132 218 210 283 329 77 141 115 291 115 455 1
194 6 179 -539 1545 -276 690 -507 1269 -514 1285 -7 17 -39 95 -70 175 -32
80 -63 159 -70 175 -7 17 -43 107 -80 200 -37 94 -73 184 -80 200 -7 17 -56
140 -110 275 -104 265 -106 268 -128 320 -8 19 -153 382 -321 805 -333 836
-318 799 -334 835 -6 14 -57 140 -112 280 -56 140 -105 264 -110 275 -8 20
-67 166 -76 190 -4 10 40 13 228 13 128 0 251 1 273 1 l40 1 0 955 c0 645 -3
955 -10 956 -5 1 -2383 2 -5282 3 l-5273 1 0 -957z"/>
</g>
</svg>
